<svg width="158" height="41" viewBox="0 0 158 41" fill="none" xmlns="http://www.w3.org/2000/svg">
<g clip-path="url(#clip0_103_4)">
<path d="M53.17 35.64H54.35C54.48 37.79 55.93 38.99 58.35 38.99C60.21 38.99 61.59 38.05 61.59 36.33C61.59 34.61 60.41 34.12 57.7 33.57C55.36 33.11 53.7 32.4 53.7 30.19C53.7 28.19 55.4 26.84 57.94 26.84C60.75 26.84 62.17 28.37 62.4 30.54H61.25C61.2137 30.1444 61.0993 29.7599 60.9133 29.4089C60.7273 29.0579 60.4734 28.7474 60.1664 28.4953C59.8594 28.2431 59.5054 28.0545 59.1249 27.9403C58.7444 27.8261 58.3451 27.7886 57.95 27.83C56.02 27.83 54.85 28.76 54.85 30.15C54.85 31.54 56.02 32.15 58.29 32.54C60.75 33.02 62.79 33.62 62.79 36.28C62.79 38.53 60.98 39.98 58.33 39.98C54.96 40 53.31 38.11 53.17 35.64Z" fill="white"/>
<path d="M68.36 28.15H64.08V27.09H73.82V28.15H69.55V39.75H68.36V28.15Z" fill="white"/>
<path d="M74.98 33.41C74.98 29.64 77.29 26.82 80.86 26.82C84.43 26.82 86.75 29.64 86.75 33.41C86.75 37.18 84.46 40 80.86 40C77.26 40 74.98 37.18 74.98 33.41ZM85.54 33.41C85.54 30.35 83.91 27.89 80.86 27.89C77.81 27.89 76.22 30.35 76.22 33.41C76.22 36.47 77.83 38.94 80.86 38.94C83.89 38.94 85.54 36.48 85.54 33.41Z" fill="white"/>
<path d="M89.63 27.09H95.28C97.56 27.09 98.87 28.4 98.87 30.51C98.9251 31.1794 98.7429 31.8468 98.3553 32.3954C97.9677 32.9439 97.3994 33.3385 96.75 33.51V33.57C98.06 34.01 98.48 34.97 98.57 36.93C98.66 38.89 98.89 39.48 99.12 39.64V39.71H97.84C97.56 39.52 97.49 39.04 97.38 36.88C97.27 34.72 96.52 34.06 94.67 34.06H90.81V39.71H89.63V27.09ZM94.87 33.09C96.71 33.09 97.65 32.19 97.65 30.61C97.65 29.03 96.94 28.14 95.03 28.14H90.81V33.14L94.87 33.09Z" fill="white"/>
<path d="M101.88 27.09H110.49V28.09H103.07V32.64H109.87V33.64H103.07V38.58H110.68V39.68H101.88V27.09Z" fill="white"/>
<path d="M0 0.359985H8.85C12.53 0.359985 15.32 2.24998 15.32 5.68998C15.3696 6.68953 15.0794 7.67643 14.4965 8.48993C13.9136 9.30344 13.0724 9.89561 12.11 10.17V10.25C12.8582 10.4598 13.5211 10.9005 14.0041 11.5092C14.4872 12.118 14.7657 12.8637 14.8 13.64C15.19 16.07 14.93 18.4 15.58 18.64V18.87H11.13C10.64 18.59 10.71 16.42 10.43 14.58C10.4237 14.1966 10.3361 13.819 10.173 13.472C10.01 13.1249 9.77512 12.8165 9.48401 12.567C9.1929 12.3174 8.85216 12.1325 8.48429 12.0245C8.11643 11.9164 7.72981 11.8876 7.35 11.94H4.58V18.87H0V0.359985ZM8 8.53999C9.81 8.53999 10.75 7.68999 10.75 6.28999C10.75 4.88999 9.89 3.99998 8.13 3.99998H4.58V8.55999L8 8.53999Z" fill="white"/>
<path d="M22.98 0.359985H27.69L34.37 18.86H29.56L28.47 15.53H22L20.94 18.86H16.33L22.98 0.359985ZM27.41 12.24L26.01 7.75998C25.7 6.80998 25.29 5.14999 25.29 5.14999H25.23C25.23 5.14999 24.79 6.80998 24.48 7.75998L23.06 12.24H27.41Z" fill="white"/>
<path d="M35.66 0.359985H40.27L45.75 9.64999L47.02 12H47.08C47.08 12 47.02 9.76998 47.02 9.11998V0.359985H51.5V18.86H46.89L41.46 9.69999C41.15 9.20999 40.14 7.21999 40.14 7.21999C40.14 7.21999 40.14 9.59999 40.14 10.22V18.83H35.66V0.359985Z" fill="white"/>
<path d="M54.04 0.359985H61.93C67.05 0.359985 70.5 4.05998 70.5 9.72998C70.5 12.99 69.36 15.6 67.29 17.18C65.6476 18.3485 63.6641 18.9394 61.65 18.86H54.04V0.359985ZM61.31 15C64.31 15 65.87 13.11 65.87 9.71999C65.87 6.32999 64.23 4.17999 61.36 4.17999H58.62V15H61.31Z" fill="white"/>
<path d="M71.53 9.65C71.53 4.11 75.08 0 80.67 0C86.26 0 89.83 4.11 89.83 9.65C89.83 15.19 86.28 19.3 80.67 19.3C75.06 19.3 71.53 15.19 71.53 9.65ZM85.17 9.65C85.17 6.29 83.7 3.7 80.69 3.7C77.68 3.7 76.19 6.29 76.19 9.65C76.19 13.01 77.72 15.58 80.69 15.58C83.66 15.58 85.17 13 85.17 9.65V9.65Z" fill="white"/>
<path d="M91.62 0.359985H97.75L100 8.45998C100.33 9.62998 101.06 12.68 101.06 12.68C101.06 12.68 101.78 9.67998 102.06 8.45998L104.34 0.359985H110.55V18.86H106.36V9.54998C106.36 8.79998 106.44 5.84998 106.44 5.84998H106.39C106.39 5.84998 105.74 8.61999 105.53 9.28999L102.87 18.86H99.09L96.45 9.31998C96.24 8.63998 95.6 5.84998 95.6 5.84998H95.54C95.54 5.84998 95.62 8.84998 95.62 9.56998V18.86H91.51L91.62 0.359985Z" fill="white"/>
<path d="M117.5 20.11C117.5 31.1557 126.454 40.11 137.5 40.11C148.546 40.11 157.5 31.1557 157.5 20.11C157.5 9.06429 148.546 0.109985 137.5 0.109985C126.454 0.109985 117.5 9.06429 117.5 20.11Z" fill="#30A100"/>
</g>
<defs>
<clipPath id="clip0_103_4">
<rect width="157.5" height="40.11" fill="white"/>
</clipPath>
</defs>
</svg>
